<?xml version="1.0" standalone="no"?>
<!DOCTYPE svg PUBLIC "-//W3C//DTD SVG 20010904//EN"
 "http://www.w3.org/TR/2001/REC-SVG-20010904/DTD/svg10.dtd">
<svg version="1.0" xmlns="http://www.w3.org/2000/svg"
 width="260.000000pt" height="260.000000pt" viewBox="0 0 260.000000 260.000000"
 preserveAspectRatio="xMidYMid meet">
<metadata>
Created by potrace 1.11, written by Peter Selinger 2001-2013
</metadata>
<g transform="translate(0.000000,260.000000) scale(0.100000,-0.100000)"
fill="#000000" stroke="none">
<path d="M2067 2548 c-20 -4 -55 -17 -76 -27 -36 -19 -39 -23 -43 -76 -9 -106
-67 -131 -174 -74 -57 29 -63 31 -179 30 -262 -2 -407 -19 -526 -60 -68 -23
-89 -16 -131 44 -44 62 -52 85 -31 85 35 0 -4 21 -77 41 -90 25 -137 26 -177
6 -29 -16 -93 -80 -93 -95 0 -4 -12 -15 -28 -25 -27 -18 -25 -18 93 -14 106 3
126 7 171 30 61 31 68 28 118 -55 l34 -57 -54 -16 c-33 -9 -59 -24 -68 -38
-19 -30 -41 -141 -71 -362 -9 -66 -23 -134 -30 -152 -11 -26 -11 -34 1 -50 19
-25 17 -77 -3 -96 -10 -8 -38 -24 -63 -34 -87 -36 -170 -83 -185 -107 -25 -38
-56 -135 -59 -185 -4 -64 16 -138 47 -169 21 -21 38 -26 89 -30 35 -2 67 -8
72 -13 5 -5 13 -59 17 -121 6 -87 15 -132 38 -194 17 -45 44 -150 61 -233 17
-84 41 -180 52 -214 21 -66 56 -145 67 -151 3 -2 34 -7 69 -11 80 -9 115 -19
149 -43 33 -23 53 -30 113 -36 118 -14 245 -18 605 -21 330 -2 398 0 440 13
33 10 98 16 189 18 148 2 156 5 156 54 0 37 -82 122 -127 132 -1 0 -40 11 -85
24 -76 22 -98 23 -256 20 l-174 -3 7 56 c3 31 17 133 30 226 13 94 26 197 30
230 3 33 14 114 25 180 10 66 22 140 25 165 4 25 13 79 21 120 10 56 14 163
14 416 l0 341 -30 59 c-16 32 -61 93 -100 134 -68 73 -90 111 -52 91 11 -6 24
-6 34 0 23 13 68 93 68 121 l0 23 18 -22 c24 -31 67 -45 116 -38 96 14 114 17
181 31 71 15 103 33 91 53 -4 6 -19 9 -34 6 -16 -3 -59 9 -111 30 -108 43
-156 53 -204 43z m-767 -2060 c6 -24 27 -94 46 -157 19 -63 33 -116 31 -117
-1 -2 -39 -6 -82 -10 -44 -3 -84 -7 -90 -8 -16 -2 -18 69 -5 188 13 129 20
146 60 146 26 0 30 -5 40 -42z"/>
<path d="M160 2332 c18 -24 19 -32 9 -60 -10 -29 -13 -31 -28 -19 -34 29 -52
28 -81 -3 -29 -31 -56 -120 -48 -158 5 -24 50 -17 110 16 l46 26 51 -24 c28
-13 64 -23 81 -23 59 0 101 69 85 142 -9 41 -51 49 -128 23 -72 -24 -75 -10
-12 53 46 47 39 60 -17 31 -25 -13 -30 -12 -52 5 -34 27 -40 24 -16 -9z"/>
</g>
</svg>
